#!OML:ASF F:\VICON\USERDATA\Patient Classification 1\PLAYGROUND\JustinFriday\JustinFriday.ASF
:FULLY-SPECIFIED
:DEGREES
1058
root 11.1351 23.5514 49.237 -359.752 -198.905 11.1956
lowerback 36.9289 -2.77012 2.41144
upperback -2.30468 -1.8855 1.46309
thorax -21.9634 -0.765891 1.29594
lowerneck -1.59825 -1.17381 -4.04558
upperneck -19.7873 0.871973 7.25521
head -5.70752 0.838658 2.88586
rclavicle -1.94809e-014 3.57812e-014
rhumerus 87.4713 -9.92306 -69.1753
rradius 51.4651
rwrist 187.843
rhand -10.3722 23.1171
rfingers 7.12502
rthumb 15.6252 -6.27181
lclavicle -1.94809e-014 3.57812e-014
lhumerus 8.06179 25.1464 50.9676
lradius 59.6196
lwrist 58.1619
lhand 6.37563 12.9773
lfingers 7.12502
lthumb 31.6812 40.2467
rfemur -58.5483 -10.7356 28.3347
rtibia 89.9022
rfoot -23.5797 7.98773
rtoes -0.0760994
lfemur 5.60901 -3.58821 -8.01154
ltibia -6.36111e-014
lfoot -4.93344 -6.34933
ltoes -16.4334
1059
root 11.2491 23.5641 49.2109 -359.925 -197.907 11.1234
lowerback 37.2214 -3.01939 2.40413
upperback -2.61541 -2.22016 1.47549
thorax -22.513 -0.896758 1.51222
lowerneck -1.24212 -1.12311 -4.7528
upperneck -19.5478 0.908271 7.70273
head -5.69276 0.850306 3.14772
rclavicle 1.5704e-014 2.70347e-014
rhumerus 88.6899 -9.48508 -70.1936
rradius 49.5486
rwrist 189.318
rhand -11.237 23.0976
rfingers 7.12502
rthumb 14.7922 -6.3545
lclavicle 1.5704e-014 2.70347e-014
lhumerus 7.86346 24.9512 51.0425
lradius 58.906
lwrist 58.8108
lhand 4.95906 12.8118
lfingers 7.12502
lthumb 30.3309 40.3387
rfemur -57.6076 -11.0974 28.6546
rtibia 89.4191
rfoot -24.7366 7.2777
rtoes 1.92552
lfemur 5.6215 -4.13725 -7.68265
ltibia 4.92986e-014
lfoot -4.85629 -6.86934
ltoes -16.754
1060
root 11.3584 23.5727 49.1828 -359.944 -196.637 11.1515
lowerback 37.4166 -3.38938 2.58807
upperback -2.97504 -2.61347 1.56386
thorax -23.0948 -1.06393 1.74909
lowerneck -0.987995 -1.05578 -5.50264
upperneck -19.1463 0.9258 8.06345
head -5.60999 0.857214 3.3882
rclavicle -3.23025e-014 -3.57812e-014
rhumerus 89.7819 -9.08076 -70.9265
rradius 47.7141
rwrist 190.56
rhand -11.7778 23.3449
rfingers 7.12502
rthumb 14.2712 -6.14471
lclavicle -3.23025e-014 -3.57812e-014
lhumerus 7.69027 25.0099 51.4402
lradius 58.3859
lwrist 58.8218
lhand 3.7703 12.5722
lfingers 7.12502
lthumb 29.1964 40.302
rfemur -56.804 -11.6576 29.1156
rtibia 88.9655
rfoot -26.2739 5.81175
rtoes 0.728778
lfemur 5.44239 -4.92324 -7.26469
ltibia 2.26615e-014
lfoot -4.87381 -7.24862
ltoes -17.6378
1061
root 11.4661 23.5881 49.1518 -359.889 -195.41 11.2069
lowerback 37.5112 -3.74616 2.80995
upperback -3.35207 -2.98048 1.64208
thorax -23.6657 -1.22533 1.94364
lowerneck -1.46741 -3.88222 -13.1019
upperneck -17.7311 -1.85754 18.0559
head -4.49594 -0.520568 8.05389
rclavicle 1.07344e-014 -8.0309e-014
rhumerus 90.7099 -8.59234 -71.868
rradius 46.0916
rwrist 192.01
rhand -12.5862 23.2544
rfingers 7.12502
rthumb 13.4921 -6.2886
lclavicle 1.07344e-014 -8.0309e-014
lhumerus 7.38829 24.9042 51.7091
lradius 57.9532
lwrist 58.3406
lhand 3.29711 12.3198
lfingers 7.12502
lthumb 28.7444 40.1272
rfemur -56.0317 -12.0815 29.6027
rtibia 88.5379
rfoot -27.7776 3.99453
rtoes -0.767657
lfemur 5.23174 -5.65187 -6.80156
ltibia 4.85035e-014
lfoot -4.79446 -7.68215
ltoes -18.4459
1062
root 11.5754 23.6007 49.1196 -359.823 -194.515 11.4084
lowerback 37.5571 -3.99212 3.04589
upperback -3.63691 -3.19021 1.71343
thorax -24.0937 -1.32763 2.03429
lowerneck -1.84885 -3.78999 -14.0344
upperneck -16.6957 -1.79636 18.8457
head -4.09272 -0.476395 8.44927
rclavicle -3.24019e-014 -3.18055e-015
rhumerus 91.6663 -8.01241 -73.2306
rradius 44.6303
rwrist 193.741
rhand -13.6034 23.1086
rfingers 7.12502
rthumb 12.5115 -6.4968
lclavicle -3.24019e-014 -3.18055e-015
lhumerus 7.16654 24.7098 51.8576
lradius 57.5107
lwrist 57.5955
lhand 3.38658 11.9854
lfingers 7.12502
lthumb 28.8299 39.7783
rfemur -55.2222 -12.268 30.3014
rtibia 88.0852
rfoot -29.2048 1.90883
rtoes -2.50137
lfemur 5.06819 -6.05812 -6.1922
ltibia 7.55382e-014
lfoot -4.56252 -8.21067
ltoes -17.87
1063
root 11.6831 23.602 49.0869 -359.583 -193.58 11.8724
lowerback 37.4549 -4.3019 3.52141
upperback -3.87492 -3.34472 1.8828
thorax -24.3971 -1.43034 2.07253
lowerneck -1.85586 -3.72189 -14.4096
upperneck -16.3495 -1.77974 18.929
head -3.98519 -0.463959 8.53414
rclavicle 2.64384e-014 -4.29375e-014
rhumerus 92.6989 -7.44294 -74.51
rradius 43.2842
rwrist 195.371
rhand -14.5712 23.4032
rfingers 7.12502
rthumb 11.5783 -6.25697
lclavicle 2.64384e-014 -4.29375e-014
lhumerus 7.03003 24.5303 52.0128
lradius 57.1445
lwrist 56.9109
lhand 2.89761 11.2125
lfingers 7.12502
lthumb 28.3627 39.0841
rfemur -54.6223 -12.4739 31.3304
rtibia 87.6387
rfoot -30.4585 -0.157336
rtoes -2.52491
lfemur 4.60889 -6.45752 -5.31548
ltibia -5.76476e-014
lfoot -4.34418 -8.78468
ltoes -20.0834
1064
root 11.7951 23.6289 49.0622 -359.989 -193.4 11.9586
lowerback 37.914 -4.22553 3.31509
upperback -3.89118 -3.31704 1.85515
thorax -24.6237 -1.38676 2.15894
lowerneck -1.60184 -3.66671 -14.4464
upperneck -16.4228 -1.75871 18.7802
head -4.0598 -0.462193 8.49717
rclavicle -4.07509e-015 2.78299e-014
rhumerus 93.729 -6.93044 -76.0104
rradius 42.1852
rwrist 197.192
rhand -15.8605 23.8171
rfingers 7.12502
rthumb 10.3347 -5.90897
lclavicle -4.07509e-015 2.78299e-014
lhumerus 7.09962 24.3524 52.0331
lradius 56.8015
lwrist 56.0102
lhand 2.46678 10.2019
lfingers 7.12502
lthumb 27.9509 38.1412
rfemur -53.3331 -12.0491 31.785
rtibia 87.1042
rfoot -31.5692 -1.75838
rtoes -1.58706
lfemur 5.26604 -6.29505 -4.84204
ltibia 2.78299e-014
lfoot -3.94265 -9.34627
ltoes -18.1318
